<svg width="1600" height="250" viewBox="0 0 1600 250" fill="none" xmlns="http://www.w3.org/2000/svg">
<rect width="1600" height="250" fill="#35495E"/>
<g filter="url(#filter0_d)">
<path d="M478.227 167V73.6953H509.305V167H478.227ZM514.227 167V148.367H529.625V136.555H557.82V167H514.227ZM596.914 167H584.469L565.836 148.367V110.961L584.469 92.3281H596.914V167ZM601.836 137.047V124.039H618.219V110.961H601.836V92.3281H628.203L646.836 110.961V137.047H601.836ZM601.836 167V149.562H643.602V157.648L634.32 167H601.836ZM705.125 167H677.562L660.125 149.562V63.8516H691.203V148.367H705.125V167ZM713.211 92.3281H744.359V167H713.211V92.3281ZM713.211 63.2188H744.359V83.0469H713.211V63.2188ZM789.57 167H777.125L758.492 148.367V110.961L777.125 92.3281H789.57V167ZM794.492 110.961V92.3281H820.719L839.352 110.961V122.141H808.273V110.961H794.492ZM794.492 167V149.562H808.273V140.211H839.352V148.367L820.719 167H794.492ZM853.133 167V73.6953H884.211V167H853.133ZM888.992 153.781V108.43L910.789 73.7656L943.133 73.6953L888.992 153.781ZM944.609 167H911L900.453 145.273L918.875 117.641L944.609 167ZM997.766 167V110.961H953.539V101.68L962.891 92.3281H1009.51L1028.14 110.961V167H997.766ZM992.844 123.547V136.484H976.812V149.562H992.844V157.789L983.562 167H959.797L947.281 154.695V135.992L959.797 123.547H992.844ZM1122.5 92.3281V167H1091.42V92.3281H1122.5ZM1072.65 148.367H1086.5V157.648L1077.5 167H1060.27L1041.57 148.367V92.3281H1072.65V148.367Z" fill="white"/>
</g>
<rect width="137" height="250" fill="#233142"/>
<rect x="1463" width="137" height="250" fill="#233142"/>
<defs>
<filter id="filter0_d" x="468.227" y="57.2188" width="664.273" height="123.781" filterUnits="userSpaceOnUse" color-interpolation-filters="sRGB">
<feFlood flood-opacity="0" result="BackgroundImageFix"/>
<feColorMatrix in="SourceAlpha" type="matrix" values="0 0 0 0 0 0 0 0 0 0 0 0 0 0 0 0 0 0 127 0" result="hardAlpha"/>
<feOffset dy="4"/>
<feGaussianBlur stdDeviation="5"/>
<feComposite in2="hardAlpha" operator="out"/>
<feColorMatrix type="matrix" values="0 0 0 0 0.129167 0 0 0 0 0.129167 0 0 0 0 0.129167 0 0 0 0.25 0"/>
<feBlend mode="normal" in2="BackgroundImageFix" result="effect1_dropShadow"/>
<feBlend mode="normal" in="SourceGraphic" in2="effect1_dropShadow" result="shape"/>
</filter>
</defs>
</svg>
